<svg xmlns="http://www.w3.org/2000/svg" xmlns:xlink="http://www.w3.org/1999/xlink" width="500" zoomAndPan="magnify" viewBox="0 0 375 374.999991" height="500" preserveAspectRatio="xMidYMid meet" version="1.0"><defs><g/><clipPath id="f25af7f425"><path d="M 89.914062 210.816406 L 182.804688 210.816406 L 182.804688 221.148438 L 89.914062 221.148438 Z M 89.914062 210.816406 " clip-rule="nonzero"/></clipPath><clipPath id="efe31984e3"><path d="M 194.894531 152.109375 L 287.789062 152.109375 L 287.789062 162.4375 L 194.894531 162.4375 Z M 194.894531 152.109375 " clip-rule="nonzero"/></clipPath></defs><g clip-path="url(#f25af7f425)"><path fill="#000000" d="M 89.914062 210.816406 L 182.800781 210.816406 L 182.800781 221.148438 L 89.914062 221.148438 Z M 89.914062 210.816406 " fill-opacity="1" fill-rule="nonzero"/></g><g clip-path="url(#efe31984e3)"><path fill="#000000" d="M 194.894531 152.109375 L 287.785156 152.109375 L 287.785156 162.4375 L 194.894531 162.4375 Z M 194.894531 152.109375 " fill-opacity="1" fill-rule="nonzero"/></g><g fill="#c85103" fill-opacity="1"><g transform="translate(84.711085, 192.453796)"><g><path d="M 4.96875 0 L 4.96875 -41.46875 L 22.6875 -41.46875 C 25.84375 -41.46875 28.585938 -40.894531 30.921875 -39.75 C 33.253906 -38.601562 35.050781 -36.960938 36.3125 -34.828125 C 37.570312 -32.691406 38.203125 -30.144531 38.203125 -27.1875 C 38.203125 -24.144531 37.507812 -21.523438 36.125 -19.328125 C 34.75 -17.140625 32.816406 -15.492188 30.328125 -14.390625 L 38.921875 0 L 28.015625 0 L 20.609375 -12.90625 L 14.390625 -12.90625 L 14.390625 0 Z M 14.28125 -20.84375 L 21.4375 -20.84375 C 23.769531 -20.84375 25.554688 -21.382812 26.796875 -22.46875 C 28.046875 -23.5625 28.671875 -25.113281 28.671875 -27.125 C 28.671875 -29.144531 28.046875 -30.695312 26.796875 -31.78125 C 25.554688 -32.863281 23.769531 -33.40625 21.4375 -33.40625 L 14.28125 -33.40625 Z M 14.28125 -20.84375 "/></g></g></g><g fill="#c85103" fill-opacity="1"><g transform="translate(138.669551, 192.453796)"><g><path d="M 24.640625 0.828125 C 20.335938 0.828125 16.515625 -0.0859375 13.171875 -1.921875 C 9.835938 -3.753906 7.234375 -6.289062 5.359375 -9.53125 C 3.484375 -12.769531 2.546875 -16.503906 2.546875 -20.734375 C 2.546875 -24.953125 3.484375 -28.679688 5.359375 -31.921875 C 7.234375 -35.160156 9.835938 -37.695312 13.171875 -39.53125 C 16.515625 -41.375 20.335938 -42.296875 24.640625 -42.296875 C 28.984375 -42.296875 32.8125 -41.375 36.125 -39.53125 C 39.445312 -37.695312 42.054688 -35.160156 43.953125 -31.921875 C 45.847656 -28.679688 46.796875 -24.953125 46.796875 -20.734375 C 46.796875 -16.503906 45.847656 -12.769531 43.953125 -9.53125 C 42.054688 -6.289062 39.445312 -3.753906 36.125 -1.921875 C 32.8125 -0.0859375 28.984375 0.828125 24.640625 0.828125 Z M 12.140625 -20.734375 C 12.140625 -18.242188 12.671875 -16.050781 13.734375 -14.15625 C 14.804688 -12.257812 16.28125 -10.773438 18.15625 -9.703125 C 20.03125 -8.640625 22.191406 -8.109375 24.640625 -8.109375 C 27.128906 -8.109375 29.3125 -8.640625 31.1875 -9.703125 C 33.0625 -10.773438 34.519531 -12.257812 35.5625 -14.15625 C 36.613281 -16.050781 37.140625 -18.242188 37.140625 -20.734375 C 37.140625 -23.222656 36.613281 -25.414062 35.5625 -27.3125 C 34.519531 -29.207031 33.0625 -30.6875 31.1875 -31.75 C 29.3125 -32.8125 27.128906 -33.34375 24.640625 -33.34375 C 22.191406 -33.34375 20.03125 -32.8125 18.15625 -31.75 C 16.28125 -30.6875 14.804688 -29.207031 13.734375 -27.3125 C 12.671875 -25.414062 12.140625 -23.222656 12.140625 -20.734375 Z M 12.140625 -20.734375 "/></g></g></g><g fill="#c85103" fill-opacity="1"><g transform="translate(194.179768, 220.958189)"><g><path d="M 4.96875 0 L 4.96875 -41.46875 L 23.515625 -41.46875 C 27.742188 -41.46875 31.097656 -40.457031 33.578125 -38.4375 C 36.066406 -36.425781 37.3125 -33.722656 37.3125 -30.328125 C 37.3125 -28.390625 36.878906 -26.628906 36.015625 -25.046875 C 35.148438 -23.472656 33.925781 -22.234375 32.34375 -21.328125 C 34.3125 -20.453125 35.835938 -19.164062 36.921875 -17.46875 C 38.015625 -15.769531 38.5625 -13.816406 38.5625 -11.609375 C 38.5625 -9.273438 37.96875 -7.238281 36.78125 -5.5 C 35.59375 -3.769531 33.941406 -2.421875 31.828125 -1.453125 C 29.722656 -0.484375 27.269531 0 24.46875 0 Z M 14.28125 -7.46875 L 23.046875 -7.46875 C 24.898438 -7.46875 26.335938 -7.898438 27.359375 -8.765625 C 28.390625 -9.628906 28.90625 -10.851562 28.90625 -12.4375 C 28.90625 -14.019531 28.390625 -15.242188 27.359375 -16.109375 C 26.335938 -16.984375 24.898438 -17.421875 23.046875 -17.421875 L 14.28125 -17.421875 Z M 14.28125 -24.578125 L 22.09375 -24.578125 C 23.90625 -24.578125 25.296875 -24.988281 26.265625 -25.8125 C 27.234375 -26.644531 27.71875 -27.816406 27.71875 -29.328125 C 27.71875 -30.828125 27.234375 -31.976562 26.265625 -32.78125 C 25.296875 -33.59375 23.90625 -34 22.09375 -34 L 14.28125 -34 Z M 14.28125 -24.578125 "/></g></g></g><g fill="#c85103" fill-opacity="1"><g transform="translate(247.24984, 220.958189)"><g><path d="M 24.640625 0.828125 C 20.335938 0.828125 16.515625 -0.0859375 13.171875 -1.921875 C 9.835938 -3.753906 7.234375 -6.289062 5.359375 -9.53125 C 3.484375 -12.769531 2.546875 -16.503906 2.546875 -20.734375 C 2.546875 -24.953125 3.484375 -28.679688 5.359375 -31.921875 C 7.234375 -35.160156 9.835938 -37.695312 13.171875 -39.53125 C 16.515625 -41.375 20.335938 -42.296875 24.640625 -42.296875 C 28.984375 -42.296875 32.8125 -41.375 36.125 -39.53125 C 39.445312 -37.695312 42.054688 -35.160156 43.953125 -31.921875 C 45.847656 -28.679688 46.796875 -24.953125 46.796875 -20.734375 C 46.796875 -16.503906 45.847656 -12.769531 43.953125 -9.53125 C 42.054688 -6.289062 39.445312 -3.753906 36.125 -1.921875 C 32.8125 -0.0859375 28.984375 0.828125 24.640625 0.828125 Z M 12.140625 -20.734375 C 12.140625 -18.242188 12.671875 -16.050781 13.734375 -14.15625 C 14.804688 -12.257812 16.28125 -10.773438 18.15625 -9.703125 C 20.03125 -8.640625 22.191406 -8.109375 24.640625 -8.109375 C 27.128906 -8.109375 29.3125 -8.640625 31.1875 -9.703125 C 33.0625 -10.773438 34.519531 -12.257812 35.5625 -14.15625 C 36.613281 -16.050781 37.140625 -18.242188 37.140625 -20.734375 C 37.140625 -23.222656 36.613281 -25.414062 35.5625 -27.3125 C 34.519531 -29.207031 33.0625 -30.6875 31.1875 -31.75 C 29.3125 -32.8125 27.128906 -33.34375 24.640625 -33.34375 C 22.191406 -33.34375 20.03125 -32.8125 18.15625 -31.75 C 16.28125 -30.6875 14.804688 -29.207031 13.734375 -27.3125 C 12.671875 -25.414062 12.140625 -23.222656 12.140625 -20.734375 Z M 12.140625 -20.734375 "/></g></g></g><g fill="#c85103" fill-opacity="1"><g transform="translate(95.54816, 234.860762)"><g><path d="M 0.6875 0 L 0.6875 -5.78125 L 3.15625 -5.78125 C 3.59375 -5.78125 3.972656 -5.695312 4.296875 -5.53125 C 4.628906 -5.375 4.882812 -5.144531 5.0625 -4.84375 C 5.238281 -4.550781 5.328125 -4.195312 5.328125 -3.78125 C 5.328125 -3.363281 5.226562 -3 5.03125 -2.6875 C 4.84375 -2.382812 4.570312 -2.15625 4.21875 -2 L 5.421875 0 L 3.90625 0 L 2.875 -1.796875 L 2 -1.796875 L 2 0 Z M 1.984375 -2.90625 L 2.984375 -2.90625 C 3.304688 -2.90625 3.554688 -2.976562 3.734375 -3.125 C 3.910156 -3.28125 4 -3.5 4 -3.78125 C 4 -4.0625 3.910156 -4.273438 3.734375 -4.421875 C 3.554688 -4.578125 3.304688 -4.65625 2.984375 -4.65625 L 1.984375 -4.65625 Z M 1.984375 -2.90625 "/></g></g></g><g fill="#c85103" fill-opacity="1"><g transform="translate(103.057256, 234.860762)"><g><path d="M 3.4375 0.109375 C 2.832031 0.109375 2.296875 -0.015625 1.828125 -0.265625 C 1.367188 -0.523438 1.007812 -0.878906 0.75 -1.328125 C 0.488281 -1.773438 0.359375 -2.296875 0.359375 -2.890625 C 0.359375 -3.472656 0.488281 -3.988281 0.75 -4.4375 C 1.007812 -4.894531 1.367188 -5.25 1.828125 -5.5 C 2.296875 -5.757812 2.832031 -5.890625 3.4375 -5.890625 C 4.039062 -5.890625 4.570312 -5.757812 5.03125 -5.5 C 5.488281 -5.25 5.847656 -4.894531 6.109375 -4.4375 C 6.378906 -3.988281 6.515625 -3.472656 6.515625 -2.890625 C 6.515625 -2.296875 6.378906 -1.773438 6.109375 -1.328125 C 5.847656 -0.878906 5.488281 -0.523438 5.03125 -0.265625 C 4.570312 -0.015625 4.039062 0.109375 3.4375 0.109375 Z M 1.6875 -2.890625 C 1.6875 -2.546875 1.757812 -2.238281 1.90625 -1.96875 C 2.0625 -1.707031 2.269531 -1.5 2.53125 -1.34375 C 2.789062 -1.195312 3.09375 -1.125 3.4375 -1.125 C 3.78125 -1.125 4.082031 -1.195312 4.34375 -1.34375 C 4.601562 -1.5 4.804688 -1.707031 4.953125 -1.96875 C 5.097656 -2.238281 5.171875 -2.546875 5.171875 -2.890625 C 5.171875 -3.234375 5.097656 -3.535156 4.953125 -3.796875 C 4.804688 -4.066406 4.601562 -4.273438 4.34375 -4.421875 C 4.082031 -4.566406 3.78125 -4.640625 3.4375 -4.640625 C 3.09375 -4.640625 2.789062 -4.566406 2.53125 -4.421875 C 2.269531 -4.273438 2.0625 -4.066406 1.90625 -3.796875 C 1.757812 -3.535156 1.6875 -3.234375 1.6875 -2.890625 Z M 1.6875 -2.890625 "/></g></g></g><g fill="#c85103" fill-opacity="1"><g transform="translate(111.629657, 234.860762)"><g><path d="M 2.703125 0.109375 C 2.222656 0.109375 1.804688 0.03125 1.453125 -0.125 C 1.109375 -0.28125 0.835938 -0.503906 0.640625 -0.796875 C 0.453125 -1.097656 0.359375 -1.445312 0.359375 -1.84375 L 1.65625 -1.84375 C 1.65625 -1.5625 1.75 -1.34375 1.9375 -1.1875 C 2.125 -1.039062 2.378906 -0.96875 2.703125 -0.96875 C 2.972656 -0.96875 3.1875 -1.019531 3.34375 -1.125 C 3.507812 -1.226562 3.59375 -1.378906 3.59375 -1.578125 C 3.59375 -1.773438 3.492188 -1.9375 3.296875 -2.0625 C 3.109375 -2.195312 2.8125 -2.304688 2.40625 -2.390625 C 1.726562 -2.535156 1.222656 -2.753906 0.890625 -3.046875 C 0.566406 -3.335938 0.40625 -3.71875 0.40625 -4.1875 C 0.40625 -4.707031 0.597656 -5.117188 0.984375 -5.421875 C 1.367188 -5.734375 1.894531 -5.890625 2.5625 -5.890625 C 3.019531 -5.890625 3.414062 -5.8125 3.75 -5.65625 C 4.082031 -5.5 4.34375 -5.28125 4.53125 -5 C 4.71875 -4.71875 4.8125 -4.378906 4.8125 -3.984375 L 3.546875 -3.984375 C 3.546875 -4.242188 3.457031 -4.445312 3.28125 -4.59375 C 3.113281 -4.738281 2.878906 -4.8125 2.578125 -4.8125 C 2.304688 -4.8125 2.085938 -4.757812 1.921875 -4.65625 C 1.765625 -4.550781 1.6875 -4.398438 1.6875 -4.203125 C 1.6875 -4.023438 1.773438 -3.875 1.953125 -3.75 C 2.128906 -3.632812 2.4375 -3.523438 2.875 -3.421875 C 3.59375 -3.253906 4.113281 -3.023438 4.4375 -2.734375 C 4.757812 -2.453125 4.921875 -2.082031 4.921875 -1.625 C 4.921875 -1.082031 4.722656 -0.65625 4.328125 -0.34375 C 3.929688 -0.0390625 3.390625 0.109375 2.703125 0.109375 Z M 2.703125 0.109375 "/></g></g></g><g fill="#c85103" fill-opacity="1"><g transform="translate(118.619457, 234.860762)"><g><path d="M 0.6875 0 L 0.6875 -5.78125 L 4.484375 -5.78125 L 4.484375 -4.671875 L 2 -4.671875 L 2 -3.46875 L 4.265625 -3.46875 L 4.265625 -2.375 L 2 -2.375 L 2 -1.109375 L 4.578125 -1.109375 L 4.578125 0 Z M 0.6875 0 "/></g></g></g><g fill="#c85103" fill-opacity="1"><g transform="translate(125.320767, 234.860762)"><g><path d="M 1.9375 0 L 0.078125 -5.78125 L 1.484375 -5.78125 L 2.03125 -4.015625 L 2.640625 -2.125 L 3.296875 -4.015625 L 3.921875 -5.78125 L 5.171875 -5.78125 L 5.78125 -4.015625 L 6.453125 -2.09375 L 7.0625 -4.015625 L 7.625 -5.78125 L 9.015625 -5.78125 L 7.140625 0 L 5.859375 0 L 4.546875 -3.734375 L 3.234375 0 Z M 1.9375 0 "/></g></g></g><g fill="#c85103" fill-opacity="1"><g transform="translate(136.110461, 234.860762)"><g><path d="M 0.6875 0 L 0.6875 -5.78125 L 2 -5.78125 L 2 0 Z M 0.6875 0 "/></g></g></g><g fill="#c85103" fill-opacity="1"><g transform="translate(140.512053, 234.860762)"><g><path d="M 0.6875 0 L 0.6875 -5.78125 L 2 -5.78125 L 2 -1.234375 L 4.53125 -1.234375 L 4.53125 0 Z M 0.6875 0 "/></g></g></g><g fill="#c85103" fill-opacity="1"><g transform="translate(146.966083, 234.860762)"><g><path d="M 0.6875 0 L 0.6875 -5.78125 L 2 -5.78125 L 2 -1.234375 L 4.53125 -1.234375 L 4.53125 0 Z M 0.6875 0 "/></g></g></g><g fill="#c85103" fill-opacity="1"><g transform="translate(153.420113, 234.860762)"><g/></g></g><g fill="#c85103" fill-opacity="1"><g transform="translate(157.063381, 234.860762)"><g><path d="M 0.6875 0 L 0.6875 -5.78125 L 3.28125 -5.78125 C 3.863281 -5.78125 4.328125 -5.640625 4.671875 -5.359375 C 5.023438 -5.078125 5.203125 -4.695312 5.203125 -4.21875 C 5.203125 -3.945312 5.140625 -3.703125 5.015625 -3.484375 C 4.890625 -3.265625 4.71875 -3.09375 4.5 -2.96875 C 4.78125 -2.84375 4.992188 -2.660156 5.140625 -2.421875 C 5.296875 -2.191406 5.375 -1.921875 5.375 -1.609375 C 5.375 -1.285156 5.289062 -1.003906 5.125 -0.765625 C 4.957031 -0.523438 4.726562 -0.335938 4.4375 -0.203125 C 4.144531 -0.0664062 3.800781 0 3.40625 0 Z M 1.984375 -1.046875 L 3.203125 -1.046875 C 3.460938 -1.046875 3.664062 -1.101562 3.8125 -1.21875 C 3.957031 -1.34375 4.03125 -1.515625 4.03125 -1.734375 C 4.03125 -1.953125 3.957031 -2.117188 3.8125 -2.234375 C 3.664062 -2.359375 3.460938 -2.421875 3.203125 -2.421875 L 1.984375 -2.421875 Z M 1.984375 -3.421875 L 3.078125 -3.421875 C 3.328125 -3.421875 3.519531 -3.476562 3.65625 -3.59375 C 3.789062 -3.707031 3.859375 -3.867188 3.859375 -4.078125 C 3.859375 -4.285156 3.789062 -4.445312 3.65625 -4.5625 C 3.519531 -4.675781 3.328125 -4.734375 3.078125 -4.734375 L 1.984375 -4.734375 Z M 1.984375 -3.421875 "/></g></g></g><g fill="#c85103" fill-opacity="1"><g transform="translate(164.448832, 234.860762)"><g><path d="M 3.4375 0.109375 C 2.832031 0.109375 2.296875 -0.015625 1.828125 -0.265625 C 1.367188 -0.523438 1.007812 -0.878906 0.75 -1.328125 C 0.488281 -1.773438 0.359375 -2.296875 0.359375 -2.890625 C 0.359375 -3.472656 0.488281 -3.988281 0.75 -4.4375 C 1.007812 -4.894531 1.367188 -5.25 1.828125 -5.5 C 2.296875 -5.757812 2.832031 -5.890625 3.4375 -5.890625 C 4.039062 -5.890625 4.570312 -5.757812 5.03125 -5.5 C 5.488281 -5.25 5.847656 -4.894531 6.109375 -4.4375 C 6.378906 -3.988281 6.515625 -3.472656 6.515625 -2.890625 C 6.515625 -2.296875 6.378906 -1.773438 6.109375 -1.328125 C 5.847656 -0.878906 5.488281 -0.523438 5.03125 -0.265625 C 4.570312 -0.015625 4.039062 0.109375 3.4375 0.109375 Z M 1.6875 -2.890625 C 1.6875 -2.546875 1.757812 -2.238281 1.90625 -1.96875 C 2.0625 -1.707031 2.269531 -1.5 2.53125 -1.34375 C 2.789062 -1.195312 3.09375 -1.125 3.4375 -1.125 C 3.78125 -1.125 4.082031 -1.195312 4.34375 -1.34375 C 4.601562 -1.5 4.804688 -1.707031 4.953125 -1.96875 C 5.097656 -2.238281 5.171875 -2.546875 5.171875 -2.890625 C 5.171875 -3.234375 5.097656 -3.535156 4.953125 -3.796875 C 4.804688 -4.066406 4.601562 -4.273438 4.34375 -4.421875 C 4.082031 -4.566406 3.78125 -4.640625 3.4375 -4.640625 C 3.09375 -4.640625 2.789062 -4.566406 2.53125 -4.421875 C 2.269531 -4.273438 2.0625 -4.066406 1.90625 -3.796875 C 1.757812 -3.535156 1.6875 -3.234375 1.6875 -2.890625 Z M 1.6875 -2.890625 "/></g></g></g><g fill="#c85103" fill-opacity="1"><g transform="translate(173.021234, 234.860762)"><g><path d="M 0.6875 0 L 0.6875 -5.78125 L 1.8125 -5.78125 L 3.859375 -2.78125 L 5.90625 -5.78125 L 7.015625 -5.78125 L 7.015625 0 L 5.703125 0 L 5.703125 -3.46875 L 4.3125 -1.421875 L 3.40625 -1.421875 L 2 -3.484375 L 2 0 Z M 0.6875 0 "/></g></g></g><g fill="#c85103" fill-opacity="1"><g transform="translate(182.426158, 234.860762)"><g><path d="M 0.6875 0 L 0.6875 -5.78125 L 4.484375 -5.78125 L 4.484375 -4.671875 L 2 -4.671875 L 2 -3.46875 L 4.265625 -3.46875 L 4.265625 -2.375 L 2 -2.375 L 2 -1.109375 L 4.578125 -1.109375 L 4.578125 0 Z M 0.6875 0 "/></g></g></g><g fill="#c85103" fill-opacity="1"><g transform="translate(189.127468, 234.860762)"><g/></g></g><g fill="#c85103" fill-opacity="1"><g transform="translate(192.770731, 234.860762)"><g><path d="M 2.078125 0 L 2.078125 -4.546875 L 0.25 -4.546875 L 0.25 -5.78125 L 5.21875 -5.78125 L 5.21875 -4.546875 L 3.390625 -4.546875 L 3.390625 0 Z M 2.078125 0 "/></g></g></g><g fill="#c85103" fill-opacity="1"><g transform="translate(199.94187, 234.860762)"><g><path d="M 0.6875 0 L 0.6875 -5.78125 L 4.484375 -5.78125 L 4.484375 -4.671875 L 2 -4.671875 L 2 -3.46875 L 4.265625 -3.46875 L 4.265625 -2.375 L 2 -2.375 L 2 -1.109375 L 4.578125 -1.109375 L 4.578125 0 Z M 0.6875 0 "/></g></g></g><g fill="#c85103" fill-opacity="1"><g transform="translate(206.643175, 234.860762)"><g><path d="M 3.34375 0.109375 C 2.757812 0.109375 2.238281 -0.015625 1.78125 -0.265625 C 1.332031 -0.523438 0.984375 -0.878906 0.734375 -1.328125 C 0.484375 -1.773438 0.359375 -2.296875 0.359375 -2.890625 C 0.359375 -3.472656 0.484375 -3.988281 0.734375 -4.4375 C 0.984375 -4.894531 1.332031 -5.25 1.78125 -5.5 C 2.226562 -5.757812 2.742188 -5.890625 3.328125 -5.890625 C 3.816406 -5.890625 4.265625 -5.796875 4.671875 -5.609375 C 5.078125 -5.421875 5.421875 -5.15625 5.703125 -4.8125 C 5.984375 -4.476562 6.175781 -4.078125 6.28125 -3.609375 L 4.9375 -3.609375 C 4.820312 -3.929688 4.625 -4.179688 4.34375 -4.359375 C 4.0625 -4.546875 3.738281 -4.640625 3.375 -4.640625 C 3.050781 -4.640625 2.757812 -4.566406 2.5 -4.421875 C 2.25 -4.273438 2.050781 -4.066406 1.90625 -3.796875 C 1.757812 -3.535156 1.6875 -3.234375 1.6875 -2.890625 C 1.6875 -2.546875 1.757812 -2.238281 1.90625 -1.96875 C 2.050781 -1.707031 2.25 -1.5 2.5 -1.34375 C 2.75 -1.195312 3.035156 -1.125 3.359375 -1.125 C 3.742188 -1.125 4.078125 -1.222656 4.359375 -1.421875 C 4.648438 -1.617188 4.851562 -1.882812 4.96875 -2.21875 L 6.328125 -2.21875 C 6.234375 -1.75 6.046875 -1.335938 5.765625 -0.984375 C 5.484375 -0.640625 5.132812 -0.367188 4.71875 -0.171875 C 4.300781 0.015625 3.84375 0.109375 3.34375 0.109375 Z M 3.34375 0.109375 "/></g></g></g><g fill="#c85103" fill-opacity="1"><g transform="translate(215.001265, 234.860762)"><g><path d="M 4.265625 0 L 4.265625 -2.328125 L 2 -2.328125 L 2 0 L 0.6875 0 L 0.6875 -5.78125 L 2 -5.78125 L 2 -3.5625 L 4.265625 -3.5625 L 4.265625 -5.78125 L 5.578125 -5.78125 L 5.578125 0 Z M 4.265625 0 "/></g></g></g><g fill="#c85103" fill-opacity="1"><g transform="translate(222.971953, 234.860762)"><g><path d="M 0.6875 0 L 0.6875 -5.78125 L 1.8125 -5.78125 L 4.359375 -2.265625 L 4.359375 -5.78125 L 5.65625 -5.78125 L 5.65625 0 L 4.546875 0 L 2 -3.546875 L 2 0 Z M 0.6875 0 "/></g></g></g><g fill="#c85103" fill-opacity="1"><g transform="translate(231.025065, 234.860762)"><g><path d="M 3.4375 0.109375 C 2.832031 0.109375 2.296875 -0.015625 1.828125 -0.265625 C 1.367188 -0.523438 1.007812 -0.878906 0.75 -1.328125 C 0.488281 -1.773438 0.359375 -2.296875 0.359375 -2.890625 C 0.359375 -3.472656 0.488281 -3.988281 0.75 -4.4375 C 1.007812 -4.894531 1.367188 -5.25 1.828125 -5.5 C 2.296875 -5.757812 2.832031 -5.890625 3.4375 -5.890625 C 4.039062 -5.890625 4.570312 -5.757812 5.03125 -5.5 C 5.488281 -5.25 5.847656 -4.894531 6.109375 -4.4375 C 6.378906 -3.988281 6.515625 -3.472656 6.515625 -2.890625 C 6.515625 -2.296875 6.378906 -1.773438 6.109375 -1.328125 C 5.847656 -0.878906 5.488281 -0.523438 5.03125 -0.265625 C 4.570312 -0.015625 4.039062 0.109375 3.4375 0.109375 Z M 1.6875 -2.890625 C 1.6875 -2.546875 1.757812 -2.238281 1.90625 -1.96875 C 2.0625 -1.707031 2.269531 -1.5 2.53125 -1.34375 C 2.789062 -1.195312 3.09375 -1.125 3.4375 -1.125 C 3.78125 -1.125 4.082031 -1.195312 4.34375 -1.34375 C 4.601562 -1.5 4.804688 -1.707031 4.953125 -1.96875 C 5.097656 -2.238281 5.171875 -2.546875 5.171875 -2.890625 C 5.171875 -3.234375 5.097656 -3.535156 4.953125 -3.796875 C 4.804688 -4.066406 4.601562 -4.273438 4.34375 -4.421875 C 4.082031 -4.566406 3.78125 -4.640625 3.4375 -4.640625 C 3.09375 -4.640625 2.789062 -4.566406 2.53125 -4.421875 C 2.269531 -4.273438 2.0625 -4.066406 1.90625 -3.796875 C 1.757812 -3.535156 1.6875 -3.234375 1.6875 -2.890625 Z M 1.6875 -2.890625 "/></g></g></g><g fill="#c85103" fill-opacity="1"><g transform="translate(239.597461, 234.860762)"><g><path d="M 0.6875 0 L 0.6875 -5.78125 L 2 -5.78125 L 2 -1.234375 L 4.53125 -1.234375 L 4.53125 0 Z M 0.6875 0 "/></g></g></g><g fill="#c85103" fill-opacity="1"><g transform="translate(246.051486, 234.860762)"><g><path d="M 3.4375 0.109375 C 2.832031 0.109375 2.296875 -0.015625 1.828125 -0.265625 C 1.367188 -0.523438 1.007812 -0.878906 0.75 -1.328125 C 0.488281 -1.773438 0.359375 -2.296875 0.359375 -2.890625 C 0.359375 -3.472656 0.488281 -3.988281 0.75 -4.4375 C 1.007812 -4.894531 1.367188 -5.25 1.828125 -5.5 C 2.296875 -5.757812 2.832031 -5.890625 3.4375 -5.890625 C 4.039062 -5.890625 4.570312 -5.757812 5.03125 -5.5 C 5.488281 -5.25 5.847656 -4.894531 6.109375 -4.4375 C 6.378906 -3.988281 6.515625 -3.472656 6.515625 -2.890625 C 6.515625 -2.296875 6.378906 -1.773438 6.109375 -1.328125 C 5.847656 -0.878906 5.488281 -0.523438 5.03125 -0.265625 C 4.570312 -0.015625 4.039062 0.109375 3.4375 0.109375 Z M 1.6875 -2.890625 C 1.6875 -2.546875 1.757812 -2.238281 1.90625 -1.96875 C 2.0625 -1.707031 2.269531 -1.5 2.53125 -1.34375 C 2.789062 -1.195312 3.09375 -1.125 3.4375 -1.125 C 3.78125 -1.125 4.082031 -1.195312 4.34375 -1.34375 C 4.601562 -1.5 4.804688 -1.707031 4.953125 -1.96875 C 5.097656 -2.238281 5.171875 -2.546875 5.171875 -2.890625 C 5.171875 -3.234375 5.097656 -3.535156 4.953125 -3.796875 C 4.804688 -4.066406 4.601562 -4.273438 4.34375 -4.421875 C 4.082031 -4.566406 3.78125 -4.640625 3.4375 -4.640625 C 3.09375 -4.640625 2.789062 -4.566406 2.53125 -4.421875 C 2.269531 -4.273438 2.0625 -4.066406 1.90625 -3.796875 C 1.757812 -3.535156 1.6875 -3.234375 1.6875 -2.890625 Z M 1.6875 -2.890625 "/></g></g></g><g fill="#c85103" fill-opacity="1"><g transform="translate(254.623883, 234.860762)"><g><path d="M 3.375 0.109375 C 2.789062 0.109375 2.269531 -0.015625 1.8125 -0.265625 C 1.351562 -0.523438 0.992188 -0.878906 0.734375 -1.328125 C 0.484375 -1.773438 0.359375 -2.296875 0.359375 -2.890625 C 0.359375 -3.472656 0.484375 -3.988281 0.734375 -4.4375 C 0.992188 -4.894531 1.347656 -5.25 1.796875 -5.5 C 2.253906 -5.757812 2.773438 -5.890625 3.359375 -5.890625 C 3.828125 -5.890625 4.257812 -5.804688 4.65625 -5.640625 C 5.050781 -5.472656 5.382812 -5.238281 5.65625 -4.9375 C 5.9375 -4.644531 6.132812 -4.296875 6.25 -3.890625 L 4.84375 -3.890625 C 4.707031 -4.140625 4.507812 -4.332031 4.25 -4.46875 C 4 -4.613281 3.707031 -4.6875 3.375 -4.6875 C 3.039062 -4.6875 2.742188 -4.609375 2.484375 -4.453125 C 2.234375 -4.296875 2.035156 -4.082031 1.890625 -3.8125 C 1.742188 -3.550781 1.671875 -3.242188 1.671875 -2.890625 C 1.671875 -2.546875 1.738281 -2.238281 1.875 -1.96875 C 2.019531 -1.695312 2.222656 -1.484375 2.484375 -1.328125 C 2.742188 -1.171875 3.050781 -1.09375 3.40625 -1.09375 C 3.820312 -1.09375 4.171875 -1.195312 4.453125 -1.40625 C 4.734375 -1.625 4.914062 -1.910156 5 -2.265625 L 3.125 -2.265625 L 3.125 -3.28125 L 6.390625 -3.28125 C 6.421875 -2.78125 6.367188 -2.320312 6.234375 -1.90625 C 6.109375 -1.5 5.910156 -1.140625 5.640625 -0.828125 C 5.378906 -0.523438 5.054688 -0.289062 4.671875 -0.125 C 4.285156 0.03125 3.851562 0.109375 3.375 0.109375 Z M 3.375 0.109375 "/></g></g></g><g fill="#c85103" fill-opacity="1"><g transform="translate(263.056158, 234.860762)"><g><path d="M 0.6875 0 L 0.6875 -5.78125 L 2 -5.78125 L 2 0 Z M 0.6875 0 "/></g></g></g><g fill="#c85103" fill-opacity="1"><g transform="translate(267.457747, 234.860762)"><g><path d="M 0.6875 0 L 0.6875 -5.78125 L 4.484375 -5.78125 L 4.484375 -4.671875 L 2 -4.671875 L 2 -3.46875 L 4.265625 -3.46875 L 4.265625 -2.375 L 2 -2.375 L 2 -1.109375 L 4.578125 -1.109375 L 4.578125 0 Z M 0.6875 0 "/></g></g></g><g fill="#c85103" fill-opacity="1"><g transform="translate(274.159062, 234.860762)"><g><path d="M 2.703125 0.109375 C 2.222656 0.109375 1.804688 0.03125 1.453125 -0.125 C 1.109375 -0.28125 0.835938 -0.503906 0.640625 -0.796875 C 0.453125 -1.097656 0.359375 -1.445312 0.359375 -1.84375 L 1.65625 -1.84375 C 1.65625 -1.5625 1.75 -1.34375 1.9375 -1.1875 C 2.125 -1.039062 2.378906 -0.96875 2.703125 -0.96875 C 2.972656 -0.96875 3.1875 -1.019531 3.34375 -1.125 C 3.507812 -1.226562 3.59375 -1.378906 3.59375 -1.578125 C 3.59375 -1.773438 3.492188 -1.9375 3.296875 -2.0625 C 3.109375 -2.195312 2.8125 -2.304688 2.40625 -2.390625 C 1.726562 -2.535156 1.222656 -2.753906 0.890625 -3.046875 C 0.566406 -3.335938 0.40625 -3.71875 0.40625 -4.1875 C 0.40625 -4.707031 0.597656 -5.117188 0.984375 -5.421875 C 1.367188 -5.734375 1.894531 -5.890625 2.5625 -5.890625 C 3.019531 -5.890625 3.414062 -5.8125 3.75 -5.65625 C 4.082031 -5.5 4.34375 -5.28125 4.53125 -5 C 4.71875 -4.71875 4.8125 -4.378906 4.8125 -3.984375 L 3.546875 -3.984375 C 3.546875 -4.242188 3.457031 -4.445312 3.28125 -4.59375 C 3.113281 -4.738281 2.878906 -4.8125 2.578125 -4.8125 C 2.304688 -4.8125 2.085938 -4.757812 1.921875 -4.65625 C 1.765625 -4.550781 1.6875 -4.398438 1.6875 -4.203125 C 1.6875 -4.023438 1.773438 -3.875 1.953125 -3.75 C 2.128906 -3.632812 2.4375 -3.523438 2.875 -3.421875 C 3.59375 -3.253906 4.113281 -3.023438 4.4375 -2.734375 C 4.757812 -2.453125 4.921875 -2.082031 4.921875 -1.625 C 4.921875 -1.082031 4.722656 -0.65625 4.328125 -0.34375 C 3.929688 -0.0390625 3.390625 0.109375 2.703125 0.109375 Z M 2.703125 0.109375 "/></g></g></g></svg>